<svg xmlns="http://www.w3.org/2000/svg" width="33" height="34" viewBox="0 0 33 34"><g><g><g><path fill="#fff" d="M12.62 2.975a3.958 3.958 0 0 1 3.958 3.958v.026a3.958 3.958 0 1 1-7.916 0v-.026a3.958 3.958 0 0 1 3.958-3.958z"/></g><g><path fill="#fff" d="M21.029 10.678a4.45 4.45 0 0 1 4.45 4.451v.023a4.45 4.45 0 0 1-8.901 0v-.023a4.451 4.451 0 0 1 4.45-4.451z"/></g><g><path fill="#fff" d="M4.45 10.678a4.451 4.451 0 0 1 4.452 4.451v.023a4.45 4.45 0 0 1-8.902 0v-.023a4.451 4.451 0 0 1 4.45-4.451z"/></g><g><path fill="#fff" d="M29.437 3.719A2.972 2.972 0 0 1 32.41 6.69v.034a2.972 2.972 0 0 1-5.944 0V6.69a2.972 2.972 0 0 1 2.972-2.971z"/></g><g><path fill="#fff" d="M12.633 20.586a2.958 2.958 0 0 1 2.958 2.958v.033a2.958 2.958 0 1 1-5.916 0v-.033a2.959 2.959 0 0 1 2.958-2.958z"/></g><g><path fill="#fff" d="M19.043 26.084a3.958 3.958 0 0 1 0 7.916 3.958 3.958 0 0 1 0-7.916z"/></g><g><path fill="#fff" d="M8.659 7.693s.471 2.978-2.722 2.978l2.97 3.724s-.559-3.724 1.979-3.724z"/></g><g><path fill="#fff" d="M16.576 7.693s-.472 2.978 2.72 2.978l-2.72 3.724s.31-3.724-2.227-3.724z"/></g><g><path fill="#fff" d="M26.471 6.949s-.256 3.03-2.968 3.722l1.979 1.986s.08-3.345 3.216-2.978z"/></g><g><path fill="#fff" d="M16.823 16.876s-.256 3.03-2.969 3.722l1.98 1.986s.08-3.346 3.215-2.978z"/></g><g><path fill="#fff" d="M15.763 28.54s-.208-2.371-2.404-2.913l1.603-1.554s.065 2.618 2.603 2.33z"/></g><g><path fill="#fff" d="M29.197 20.347a2.972 2.972 0 0 1 2.972 2.972v.006a2.972 2.972 0 0 1-5.943 0v-.006a2.972 2.972 0 0 1 2.971-2.972z"/></g><g><path fill="#fff" d="M24.595 0h.01a1.355 1.355 0 1 1 0 2.71h-.01a1.355 1.355 0 0 1 0-2.71z"/></g></g></g></svg>